<svg id="Layer_1" enable-background="new 0 0 100 100" viewBox="0 0 100 100" xmlns="http://www.w3.org/2000/svg"><path d="m65.0142288 49.9924927c0 8.2921181-6.7220917 15.0142212-15.0142212 15.0142212s-15.014225-6.7221031-15.014225-15.0142212 6.7220955-15.014225 15.014225-15.014225 15.0142212 6.7220955 15.0142212 15.014225zm32.4707566.5004654c-.0452652.1738892-.1107712.3418617-.1951828.5004768-.0353775.1235237-.0805664.2440147-.1351318.3603401-.6806412 1.0660095-17.0461502 26.2799072-47.1546669 26.2799072s-46.4740287-25.2138977-47.154672-26.2799034c-.0545671-.1163254-.0997534-.2368202-.1351275-.3603401-.0844111-.1586151-.1499202-.3265877-.1951852-.500473-.020026-.3199921-.020026-.6409187 0-.960907.045265-.1738853.110774-.3418579.1951852-.5004768.0353742-.1235161.0805604-.2440109.1351275-.3603363.6806493-1.0910416 17.046154-26.3049259 47.1546745-26.3049259s46.4740231 25.2138843 47.1546796 26.2798976c.0545578.1163216.0997467.2368164.1351242.3603363.0844193.1586189.1499176.3265915.1951828.5004768.0200119.3199921.0200119.6409111 0 .9609032zm-5.5052186-.5004654c-3.7135162-5.0047417-18.4324646-22.6214352-41.974762-22.6214352s-38.2662448 17.6166935-41.979762 22.6214352c3.7135172 5.0047302 18.4324608 22.6214294 41.9747658 22.6214294s38.2612457-17.6166992 41.974762-22.6214294z"/></svg>
